<svg width="51" height="51" viewBox="0 0 51 51" fill="none" xmlns="http://www.w3.org/2000/svg">
<path d="M2.52874 5.0565C3.92505 5.0565 5.05699 3.92456 5.05699 2.52825C5.05699 1.13194 3.92505 0 2.52874 0C1.13242 0 0.000488322 1.13194 0.000488372 2.52825C0.000488423 3.92456 1.13242 5.0565 2.52874 5.0565Z" fill="#9ECBFF"/>
<path d="M10.0365 12.7179C11.4329 12.7179 12.5648 11.5859 12.5648 10.1896C12.5648 8.79331 11.4329 7.66138 10.0365 7.66138C8.64024 7.66138 7.5083 8.79331 7.5083 10.1896C7.5083 11.5859 8.64024 12.7179 10.0365 12.7179Z" fill="#9ECBFF"/>
<path d="M10.0365 5.0565C11.4329 5.0565 12.5648 3.92456 12.5648 2.52825C12.5648 1.13194 11.4329 0 10.0365 0C8.64024 0 7.5083 1.13194 7.5083 2.52825C7.5083 3.92456 8.64024 5.0565 10.0365 5.0565Z" fill="#9ECBFF"/>
<path d="M17.6982 12.7179C19.0945 12.7179 20.2264 11.5859 20.2264 10.1896C20.2264 8.79331 19.0945 7.66138 17.6982 7.66138C16.3019 7.66138 15.1699 8.79331 15.1699 10.1896C15.1699 11.5859 16.3019 12.7179 17.6982 12.7179Z" fill="#9ECBFF"/>
<path d="M17.6982 20.2261C19.0945 20.2261 20.2264 19.0941 20.2264 17.6978C20.2264 16.3015 19.0945 15.1696 17.6982 15.1696C16.3019 15.1696 15.1699 16.3015 15.1699 17.6978C15.1699 19.0941 16.3019 20.2261 17.6982 20.2261Z" fill="#9ECBFF"/>
<path d="M17.6982 5.0565C19.0945 5.0565 20.2264 3.92456 20.2264 2.52825C20.2264 1.13194 19.0945 0 17.6982 0C16.3019 0 15.1699 1.13194 15.1699 2.52825C15.1699 3.92456 16.3019 5.0565 17.6982 5.0565Z" fill="#9ECBFF"/>
<path d="M25.2065 12.7179C26.6028 12.7179 27.7347 11.5859 27.7347 10.1896C27.7347 8.79331 26.6028 7.66138 25.2065 7.66138C23.8102 7.66138 22.6782 8.79331 22.6782 10.1896C22.6782 11.5859 23.8102 12.7179 25.2065 12.7179Z" fill="#9ECBFF"/>
<path d="M25.2065 20.2261C26.6028 20.2261 27.7347 19.0941 27.7347 17.6978C27.7347 16.3015 26.6028 15.1696 25.2065 15.1696C23.8102 15.1696 22.6782 16.3015 22.6782 17.6978C22.6782 19.0941 23.8102 20.2261 25.2065 20.2261Z" fill="#9ECBFF"/>
<path d="M25.2065 5.0565C26.6028 5.0565 27.7347 3.92456 27.7347 2.52825C27.7347 1.13194 26.6028 0 25.2065 0C23.8102 0 22.6782 1.13194 22.6782 2.52825C22.6782 3.92456 23.8102 5.0565 25.2065 5.0565Z" fill="#9ECBFF"/>
<path d="M32.7148 12.7179C34.1111 12.7179 35.243 11.5859 35.243 10.1896C35.243 8.79331 34.1111 7.66138 32.7148 7.66138C31.3185 7.66138 30.1865 8.79331 30.1865 10.1896C30.1865 11.5859 31.3185 12.7179 32.7148 12.7179Z" fill="#9ECBFF"/>
<path d="M32.7148 20.2261C34.1111 20.2261 35.243 19.0941 35.243 17.6978C35.243 16.3015 34.1111 15.1696 32.7148 15.1696C31.3185 15.1696 30.1865 16.3015 30.1865 17.6978C30.1865 19.0941 31.3185 20.2261 32.7148 20.2261Z" fill="#9ECBFF"/>
<path d="M25.2065 27.7342C26.6028 27.7342 27.7347 26.6023 27.7347 25.206C27.7347 23.8097 26.6028 22.6777 25.2065 22.6777C23.8102 22.6777 22.6782 23.8097 22.6782 25.206C22.6782 26.6023 23.8102 27.7342 25.2065 27.7342Z" fill="#9ECBFF"/>
<path d="M32.7148 27.7342C34.1111 27.7342 35.243 26.6023 35.243 25.206C35.243 23.8097 34.1111 22.6777 32.7148 22.6777C31.3185 22.6777 30.1865 23.8097 30.1865 25.206C30.1865 26.6023 31.3185 27.7342 32.7148 27.7342Z" fill="#9ECBFF"/>
<path d="M17.6983 35.3957C19.0948 35.3957 20.2268 34.2637 20.2268 32.8673C20.2268 31.4709 19.0948 30.3389 17.6983 30.3389C16.3019 30.3389 15.1699 31.4709 15.1699 32.8673C15.1699 34.2637 16.3019 35.3957 17.6983 35.3957Z" fill="#9ECBFF"/>
<path d="M25.2064 35.3957C26.6028 35.3957 27.7348 34.2637 27.7348 32.8673C27.7348 31.4709 26.6028 30.3389 25.2064 30.3389C23.81 30.3389 22.678 31.4709 22.678 32.8673C22.678 34.2637 23.81 35.3957 25.2064 35.3957Z" fill="#9ECBFF"/>
<path d="M32.7147 35.3957C34.1111 35.3957 35.2431 34.2637 35.2431 32.8673C35.2431 31.4709 34.1111 30.3389 32.7147 30.3389C31.3183 30.3389 30.1863 31.4709 30.1863 32.8673C30.1863 34.2637 31.3183 35.3957 32.7147 35.3957Z" fill="#9ECBFF"/>
<path d="M10.0365 42.9132C11.4329 42.9132 12.5648 41.7813 12.5648 40.3849C12.5648 38.9886 11.4329 37.8567 10.0365 37.8567C8.64024 37.8567 7.5083 38.9886 7.5083 40.3849C7.5083 41.7813 8.64024 42.9132 10.0365 42.9132Z" fill="#9ECBFF"/>
<path d="M17.6982 42.9132C19.0945 42.9132 20.2264 41.7813 20.2264 40.3849C20.2264 38.9886 19.0945 37.8567 17.6982 37.8567C16.3019 37.8567 15.1699 38.9886 15.1699 40.3849C15.1699 41.7813 16.3019 42.9132 17.6982 42.9132Z" fill="#9ECBFF"/>
<path d="M25.2065 42.9132C26.6028 42.9132 27.7347 41.7813 27.7347 40.3849C27.7347 38.9886 26.6028 37.8567 25.2065 37.8567C23.8102 37.8567 22.6782 38.9886 22.6782 40.3849C22.6782 41.7813 23.8102 42.9132 25.2065 42.9132Z" fill="#9ECBFF"/>
<path d="M32.7148 42.9132C34.1111 42.9132 35.243 41.7813 35.243 40.3849C35.243 38.9886 34.1111 37.8567 32.7148 37.8567C31.3185 37.8567 30.1865 38.9886 30.1865 40.3849C30.1865 41.7813 31.3185 42.9132 32.7148 42.9132Z" fill="#9ECBFF"/>
<path d="M40.539 20.2261C41.9353 20.2261 43.0672 19.0941 43.0672 17.6978C43.0672 16.3015 41.9353 15.1696 40.539 15.1696C39.1427 15.1696 38.0107 16.3015 38.0107 17.6978C38.0107 19.0941 39.1427 20.2261 40.539 20.2261Z" fill="#9ECBFF"/>
<path d="M40.539 27.7342C41.9353 27.7342 43.0672 26.6023 43.0672 25.206C43.0672 23.8097 41.9353 22.6777 40.539 22.6777C39.1427 22.6777 38.0107 23.8097 38.0107 25.206C38.0107 26.6023 39.1427 27.7342 40.539 27.7342Z" fill="#9ECBFF"/>
<path d="M40.5389 35.3957C41.9353 35.3957 43.0673 34.2637 43.0673 32.8673C43.0673 31.4709 41.9353 30.3389 40.5389 30.3389C39.1425 30.3389 38.0105 31.4709 38.0105 32.8673C38.0105 34.2637 39.1425 35.3957 40.5389 35.3957Z" fill="#9ECBFF"/>
<path d="M2.52842 50.7376C3.92483 50.7376 5.05684 49.6056 5.05684 48.2092C5.05684 46.8128 3.92483 45.6808 2.52842 45.6808C1.13201 45.6808 4.07432e-08 46.8128 9.10023e-08 48.2092C1.41261e-07 49.6056 1.13201 50.7376 2.52842 50.7376Z" fill="#9ECBFF"/>
<path d="M10.0367 50.7376C11.4331 50.7376 12.5651 49.6056 12.5651 48.2092C12.5651 46.8128 11.4331 45.6808 10.0367 45.6808C8.64031 45.6808 7.5083 46.8128 7.5083 48.2092C7.5083 49.6056 8.64031 50.7376 10.0367 50.7376Z" fill="#9ECBFF"/>
<path d="M17.6983 50.7376C19.0948 50.7376 20.2268 49.6056 20.2268 48.2092C20.2268 46.8128 19.0948 45.6808 17.6983 45.6808C16.3019 45.6808 15.1699 46.8128 15.1699 48.2092C15.1699 49.6056 16.3019 50.7376 17.6983 50.7376Z" fill="#9ECBFF"/>
<path d="M25.2064 50.7376C26.6028 50.7376 27.7348 49.6056 27.7348 48.2092C27.7348 46.8128 26.6028 45.6808 25.2064 45.6808C23.81 45.6808 22.678 46.8128 22.678 48.2092C22.678 49.6056 23.81 50.7376 25.2064 50.7376Z" fill="#9ECBFF"/>
<path d="M48.0566 27.7342C49.4529 27.7342 50.5848 26.6023 50.5848 25.206C50.5848 23.8097 49.4529 22.6777 48.0566 22.6777C46.6603 22.6777 45.5283 23.8097 45.5283 25.206C45.5283 26.6023 46.6603 27.7342 48.0566 27.7342Z" fill="#9ECBFF"/>
</svg>
