<svg width="51" height="51" viewBox="0 0 51 51" fill="none" xmlns="http://www.w3.org/2000/svg">
<path d="M48.056 45.681C46.6597 45.681 45.5277 46.813 45.5277 48.2093C45.5277 49.6056 46.6597 50.7375 48.056 50.7375C49.4523 50.7375 50.5842 49.6056 50.5842 48.2093C50.5842 46.813 49.4523 45.681 48.056 45.681Z" fill="#9ECBFF"/>
<path d="M40.548 38.0197C39.1517 38.0197 38.0198 39.1516 38.0198 40.5479C38.0198 41.9442 39.1517 43.0762 40.548 43.0762C41.9444 43.0762 43.0763 41.9442 43.0763 40.5479C43.0763 39.1516 41.9444 38.0197 40.548 38.0197Z" fill="#9ECBFF"/>
<path d="M40.548 45.681C39.1517 45.681 38.0198 46.813 38.0198 48.2093C38.0198 49.6056 39.1517 50.7375 40.548 50.7375C41.9444 50.7375 43.0763 49.6056 43.0763 48.2093C43.0763 46.813 41.9444 45.681 40.548 45.681Z" fill="#9ECBFF"/>
<path d="M32.8865 38.0197C31.4902 38.0197 30.3583 39.1516 30.3583 40.5479C30.3583 41.9442 31.4902 43.0762 32.8865 43.0762C34.2829 43.0762 35.4148 41.9442 35.4148 40.5479C35.4148 39.1516 34.2829 38.0197 32.8865 38.0197Z" fill="#9ECBFF"/>
<path d="M32.8865 30.5115C31.4902 30.5115 30.3583 31.6434 30.3583 33.0397C30.3583 34.4361 31.4902 35.568 32.8865 35.568C34.2829 35.568 35.4148 34.4361 35.4148 33.0397C35.4148 31.6434 34.2829 30.5115 32.8865 30.5115Z" fill="#9ECBFF"/>
<path d="M32.8865 45.681C31.4902 45.681 30.3583 46.813 30.3583 48.2093C30.3583 49.6056 31.4902 50.7375 32.8865 50.7375C34.2829 50.7375 35.4148 49.6056 35.4148 48.2093C35.4148 46.813 34.2829 45.681 32.8865 45.681Z" fill="#9ECBFF"/>
<path d="M25.3782 38.0197C23.9819 38.0197 22.85 39.1516 22.85 40.5479C22.85 41.9442 23.9819 43.0762 25.3782 43.0762C26.7746 43.0762 27.9065 41.9442 27.9065 40.5479C27.9065 39.1516 26.7746 38.0197 25.3782 38.0197Z" fill="#9ECBFF"/>
<path d="M25.3782 30.5115C23.9819 30.5115 22.85 31.6434 22.85 33.0397C22.85 34.4361 23.9819 35.568 25.3782 35.568C26.7746 35.568 27.9065 34.4361 27.9065 33.0397C27.9065 31.6434 26.7746 30.5115 25.3782 30.5115Z" fill="#9ECBFF"/>
<path d="M25.3782 45.681C23.9819 45.681 22.85 46.813 22.85 48.2093C22.85 49.6056 23.9819 50.7375 25.3782 50.7375C26.7746 50.7375 27.9065 49.6056 27.9065 48.2093C27.9065 46.813 26.7746 45.681 25.3782 45.681Z" fill="#9ECBFF"/>
<path d="M17.8701 38.0197C16.4738 38.0197 15.3418 39.1516 15.3418 40.5479C15.3418 41.9442 16.4738 43.0762 17.8701 43.0762C19.2664 43.0762 20.3983 41.9442 20.3983 40.5479C20.3983 39.1516 19.2664 38.0197 17.8701 38.0197Z" fill="#9ECBFF"/>
<path d="M17.8701 30.5115C16.4738 30.5115 15.3418 31.6434 15.3418 33.0397C15.3418 34.4361 16.4738 35.568 17.8701 35.568C19.2664 35.568 20.3983 34.4361 20.3983 33.0397C20.3983 31.6434 19.2664 30.5115 17.8701 30.5115Z" fill="#9ECBFF"/>
<path d="M25.3782 23.0033C23.9819 23.0033 22.85 24.1353 22.85 25.5316C22.85 26.9279 23.9819 28.0598 25.3782 28.0598C26.7746 28.0598 27.9065 26.9279 27.9065 25.5316C27.9065 24.1353 26.7746 23.0033 25.3782 23.0033Z" fill="#9ECBFF"/>
<path d="M17.8701 23.0033C16.4738 23.0033 15.3418 24.1353 15.3418 25.5316C15.3418 26.9279 16.4738 28.0598 17.8701 28.0598C19.2664 28.0598 20.3983 26.9279 20.3983 25.5316C20.3983 24.1353 19.2664 23.0033 17.8701 23.0033Z" fill="#9ECBFF"/>
<path d="M32.8865 15.3418C31.4901 15.3418 30.3581 16.4739 30.3581 17.8703C30.3581 19.2667 31.4901 20.3987 32.8865 20.3987C34.2829 20.3987 35.4149 19.2667 35.4149 17.8703C35.4149 16.4739 34.2829 15.3418 32.8865 15.3418Z" fill="#9ECBFF"/>
<path d="M25.3782 15.3418C23.9818 15.3418 22.8498 16.4739 22.8498 17.8703C22.8498 19.2667 23.9818 20.3987 25.3782 20.3987C26.7746 20.3987 27.9066 19.2667 27.9066 17.8703C27.9066 16.4739 26.7746 15.3418 25.3782 15.3418Z" fill="#9ECBFF"/>
<path d="M17.87 15.3418C16.4736 15.3418 15.3416 16.4739 15.3416 17.8703C15.3416 19.2667 16.4736 20.3987 17.87 20.3987C19.2664 20.3987 20.3984 19.2667 20.3984 17.8703C20.3984 16.4739 19.2664 15.3418 17.87 15.3418Z" fill="#9ECBFF"/>
<path d="M40.548 7.82436C39.1517 7.82436 38.0198 8.9563 38.0198 10.3526C38.0198 11.7489 39.1517 12.8809 40.548 12.8809C41.9444 12.8809 43.0763 11.7489 43.0763 10.3526C43.0763 8.9563 41.9444 7.82436 40.548 7.82436Z" fill="#9ECBFF"/>
<path d="M32.8865 7.82436C31.4902 7.82436 30.3583 8.9563 30.3583 10.3526C30.3583 11.7489 31.4902 12.8809 32.8865 12.8809C34.2829 12.8809 35.4148 11.7489 35.4148 10.3526C35.4148 8.9563 34.2829 7.82436 32.8865 7.82436Z" fill="#9ECBFF"/>
<path d="M25.3782 7.82436C23.9819 7.82436 22.85 8.9563 22.85 10.3526C22.85 11.7489 23.9819 12.8809 25.3782 12.8809C26.7746 12.8809 27.9065 11.7489 27.9065 10.3526C27.9065 8.9563 26.7746 7.82436 25.3782 7.82436Z" fill="#9ECBFF"/>
<path d="M17.8701 7.82436C16.4738 7.82436 15.3418 8.9563 15.3418 10.3526C15.3418 11.7489 16.4738 12.8809 17.8701 12.8809C19.2664 12.8809 20.3983 11.7489 20.3983 10.3526C20.3983 8.9563 19.2664 7.82436 17.8701 7.82436Z" fill="#9ECBFF"/>
<path d="M10.0457 30.5115C8.64941 30.5115 7.51747 31.6434 7.51747 33.0397C7.51747 34.4361 8.64941 35.568 10.0457 35.568C11.442 35.568 12.574 34.4361 12.574 33.0397C12.574 31.6434 11.442 30.5115 10.0457 30.5115Z" fill="#9ECBFF"/>
<path d="M10.0457 23.0033C8.64941 23.0033 7.51747 24.1353 7.51747 25.5316C7.51747 26.9279 8.64941 28.0598 10.0457 28.0598C11.442 28.0598 12.574 26.9279 12.574 25.5316C12.574 24.1353 11.442 23.0033 10.0457 23.0033Z" fill="#9ECBFF"/>
<path d="M10.0458 15.3418C8.64939 15.3418 7.51738 16.4739 7.51738 17.8703C7.51738 19.2667 8.64939 20.3987 10.0458 20.3987C11.4422 20.3987 12.5742 19.2667 12.5742 17.8703C12.5742 16.4739 11.4422 15.3418 10.0458 15.3418Z" fill="#9ECBFF"/>
<path d="M48.0563 -8.17602e-05C46.6599 -8.18823e-05 45.5279 1.13193 45.5279 2.52834C45.5279 3.92475 46.6599 5.05676 48.0563 5.05676C49.4527 5.05676 50.5847 3.92475 50.5847 2.52834C50.5847 1.13193 49.4527 -8.16381e-05 48.0563 -8.17602e-05Z" fill="#9ECBFF"/>
<path d="M40.5481 -8.17602e-05C39.1517 -8.18823e-05 38.0197 1.13193 38.0197 2.52834C38.0197 3.92475 39.1517 5.05676 40.5481 5.05676C41.9445 5.05676 43.0765 3.92475 43.0765 2.52834C43.0765 1.13193 41.9445 -8.16381e-05 40.5481 -8.17602e-05Z" fill="#9ECBFF"/>
<path d="M32.8865 -8.17602e-05C31.4901 -8.18823e-05 30.3581 1.13193 30.3581 2.52834C30.3581 3.92475 31.4901 5.05676 32.8865 5.05676C34.2829 5.05676 35.4149 3.92475 35.4149 2.52834C35.4149 1.13193 34.2829 -8.16381e-05 32.8865 -8.17602e-05Z" fill="#9ECBFF"/>
<path d="M25.3782 -8.17602e-05C23.9818 -8.18823e-05 22.8498 1.13193 22.8498 2.52834C22.8498 3.92475 23.9818 5.05676 25.3782 5.05676C26.7746 5.05676 27.9066 3.92475 27.9066 2.52834C27.9066 1.13193 26.7746 -8.16381e-05 25.3782 -8.17602e-05Z" fill="#9ECBFF"/>
<path d="M2.52814 23.0033C1.13183 23.0033 -0.000101841 24.1353 -0.000101913 25.5316C-0.000101985 26.9279 1.13183 28.0598 2.52814 28.0598C3.92446 28.0598 5.0564 26.9279 5.0564 25.5316C5.0564 24.1353 3.92446 23.0033 2.52814 23.0033Z" fill="#9ECBFF"/>
</svg>
